<svg xmlns="http://www.w3.org/2000/svg" viewBox="0 0 24 24">
  <defs>
    <linearGradient id="overcastGradient" x1="0%" y1="0%" x2="100%" y2="100%">
      <stop offset="0%" style="stop-color:#90A4AE"/>
      <stop offset="100%" style="stop-color:#546E7A"/>
    </linearGradient>
  </defs>
  <g transform="translate(2, 2)">
    <path d="M16 16H4c-2.209 0-4-1.791-4-4s1.791-4 4-4c.132 0 .263.007.391.02C4.97 6.586 6.827 5.5 8.937 5.5c2.305 0 4.276 1.331 5.233 3.256.32-.051.645-.076.973-.076 3.314 0 6 2.686 6 6" 
          fill="url(#overcastGradient)" 
          stroke="#455A64" 
          stroke-width="1">
      <animateTransform
        attributeName="transform"
        type="translate"
        values="-2,0; 0,0; -2,0"
        dur="4s"
        repeatCount="indefinite"/>
    </path>
    <path d="M18 12H2c-1.104 0-2-.896-2-2s.896-2 2-2h16c1.104 0 2 .896 2 2s-.896 2-2 2" 
          fill="url(#overcastGradient)" 
          stroke="#455A64" 
          stroke-width="1" 
          opacity="0.7">
      <animateTransform
        attributeName="transform"
        type="translate"
        values="0,0; 2,0; 0,0"
        dur="4s"
        repeatCount="indefinite"/>
    </path>
  </g>
</svg> 
