<svg xmlns="http://www.w3.org/2000/svg" viewBox="0 0 24 24">
  <defs>
    <linearGradient id="thunderGradient" x1="0%" y1="0%" x2="100%" y2="100%">
      <stop offset="0%" style="stop-color:#FFD700"/>
      <stop offset="100%" style="stop-color:#FFA000"/>
    </linearGradient>
    <filter id="glow">
      <feGaussianBlur stdDeviation="0.5" result="coloredBlur"/>
      <feMerge>
        <feMergeNode in="coloredBlur"/>
        <feMergeNode in="SourceGraphic"/>
      </feMerge>
    </filter>
  </defs>
  <g transform="translate(2, 2)">
    <path d="M16 10H4c-2.209 0-4-1.791-4-4s1.791-4 4-4c.132 0 .263.007.391.02C4.97 0.586 6.827-0.5 8.937-0.5c2.305 0 4.276 1.331 5.233 3.256.32-.051.645-.076.973-.076 3.314 0 6 2.686 6 6" 
          fill="#424242" 
          stroke="#212121"/>
    <path d="M10 8l-2 4h4l-2 4 6-6h-4l2-2z" 
          fill="url(#thunderGradient)" 
          filter="url(#glow)">
      <animate attributeName="opacity" values="0.7;1;0.7" dur="2s" repeatCount="indefinite"/>
    </path>
  </g>
</svg> 
